ffmpeg started on 2016-12-08 at 01:11:35
Report written to "Output/x264/results/ffmpeg/crowd_run_2160p50slower5000k.log"
Command line:
Tools/ffmpeg/ffmpeg -benchmark -y -i Input/y4m/crowd_run_2160p50.y4m -c:v libx264 -preset slower -b:v 5000k -an Output/x264/encoded/crowd_run_2160p50slower5000k.mkv
ffmpeg version N-82227-gdb23fde Copyright (c) 2000-2016 the FFmpeg developers
  built with gcc 5.4.0 (Ubuntu 5.4.0-6ubuntu1~16.04.2) 20160609
  configuration: --prefix=/home/jaroslav/ffmpeg_build --pkg-config-flags=--static --extra-cflags=-I/home/jaroslav/ffmpeg_build/include --extra-ldflags=-L/home/jaroslav/ffmpeg_build/lib --bindir=/home/jaroslav/bin --enable-gpl --enable-libass --enable-libfdk-aac --enable-libfreetype --enable-libmp3lame --enable-libopus --enable-libtheora --enable-libvorbis --enable-libvpx --enable-libx264 --enable-libx265 --enable-nvenc --enable-libmfx --enable-libxvid --enable-libgsm --enable-libopencore-amrnb --enable-version3 --enable-nonfree
  libavutil      55. 35.100 / 55. 35.100
  libavcodec     57. 66.101 / 57. 66.101
  libavformat    57. 57.100 / 57. 57.100
  libavdevice    57.  2.100 / 57.  2.100
  libavfilter     6. 66.100 /  6. 66.100
  libswscale      4.  3.100 /  4.  3.100
  libswresample   2.  4.100 /  2.  4.100
  libpostproc    54.  2.100 / 54.  2.100
Input #0, yuv4mpegpipe, from 'Input/y4m/crowd_run_2160p50.y4m':
  Duration: 00:00:10.00, start: 0.000000, bitrate: 4976642 kb/s
    Stream #0:0: Video: rawvideo (I420 / 0x30323449), yuv420p(progressive), 3840x2160, SAR 1:1 DAR 16:9, 50 fps, 50 tbr, 50 tbn, 50 tbc
[libx264 @ 0x44ac1c0] using SAR=1/1
[libx264 @ 0x44ac1c0] DPB size (8 frames, 259200 mbs) > level limit (5 frames, 184320 mbs)
[libx264 @ 0x44ac1c0] using cpu capabilities: MMX2 SSE2Fast SSSE3 SSE4.2 AVX FMA3 AVX2 LZCNT BMI2
[libx264 @ 0x44ac1c0] profile High, level 5.2
[libx264 @ 0x44ac1c0] 264 - core 148 - H.264/MPEG-4 AVC codec - Copyleft 2003-2016 - http://www.videolan.org/x264.html - options: cabac=1 ref=8 deblock=1:0:0 analyse=0x3:0x133 me=umh subme=9 psy=1 psy_rd=1.00:0.00 mixed_ref=1 me_range=16 chroma_me=1 trellis=2 8x8dct=1 cqm=0 deadzone=21,11 fast_pskip=1 chroma_qp_offset=-2 threads=6 lookahead_threads=1 sliced_threads=0 nr=0 decimate=1 interlaced=0 bluray_compat=0 constrained_intra=0 bframes=3 b_pyramid=2 b_adapt=2 b_bias=0 direct=3 weightb=1 open_gop=0 weightp=2 keyint=250 keyint_min=25 scenecut=40 intra_refresh=0 rc_lookahead=60 rc=abr mbtree=1 bitrate=5000 ratetol=1.0 qcomp=0.60 qpmin=0 qpmax=69 qpstep=4 ip_ratio=1.40 aq=1:1.00
Output #0, matroska, to 'Output/x264/encoded/crowd_run_2160p50slower5000k.mkv':
  Metadata:
    encoder         : Lavf57.57.100
    Stream #0:0: Video: h264 (libx264) (H264 / 0x34363248), yuv420p, 3840x2160 [SAR 1:1 DAR 16:9], q=-1--1, 5000 kb/s, 50 fps, 1k tbn, 50 tbc
    Metadata:
      encoder         : Lavc57.66.101 libx264
    Side data:
      cpb: bitrate max/min/avg: 0/0/5000000 buffer size: 0 vbv_delay: -1
Stream mapping:
  Stream #0:0 -> #0:0 (rawvideo (native) -> h264 (libx264))
Press [q] to stop, [?] for help
frame=   19 fps=0.0 q=0.0 size=       0kB time=00:00:00.00 bitrate=N/A speed=   0x    frame=   27 fps= 26 q=0.0 size=       0kB time=00:00:00.00 bitrate=N/A speed=   0x    frame=   43 fps= 28 q=0.0 size=       0kB time=00:00:00.00 bitrate=N/A speed=   0x    frame=   54 fps= 26 q=0.0 size=       0kB time=00:00:00.00 bitrate=N/A speed=   0x    frame=   64 fps= 25 q=0.0 size=       0kB time=00:00:00.00 bitrate=N/A speed=   0x    frame=   67 fps= 12 q=0.0 size=       0kB time=00:00:00.00 bitrate=N/A speed=   0x    frame=   72 fps= 11 q=41.0 size=       1kB time=-00:00:00.01 bitrate=N/A speed=N/A    frame=   74 fps= 11 q=43.0 size=       1kB time=00:00:00.02 bitrate= 280.4kbits/s speed=0.00304x    frame=   75 fps= 10 q=46.0 size=       1kB time=00:00:00.04 bitrate= 143.6kbits/s speed=0.00553x    frame=   77 fps=9.6 q=53.0 size=       1kB time=00:00:00.08 bitrate=  72.7kbits/s speed=0.0101x    frame=   81 fps=9.2 q=56.0 size=       1kB time=00:00:00.16 bitrate=  36.6kbits/s speed=0.0184x    frame=   82 fps=8.8 q=56.0 size=       1kB time=00:00:00.18 bitrate=  32.5kbits/s speed=0.0195x    frame=   84 fps=8.5 q=55.0 size=       1kB time=00:00:00.22 bitrate=  26.6kbits/s speed=0.0224x    frame=   88 fps=8.3 q=55.0 size=       1kB time=00:00:00.30 bitrate=  19.6kbits/s speed=0.0282x    frame=   90 fps=7.9 q=55.0 size=       1kB time=00:00:00.34 bitrate=  17.3kbits/s speed=0.0298x    frame=   92 fps=7.7 q=55.0 size=       1kB time=00:00:00.38 bitrate=  15.5kbits/s speed=0.0318x    frame=   95 fps=7.5 q=55.0 size=       1kB time=00:00:00.44 bitrate=  13.4kbits/s speed=0.0349x    frame=   98 fps=7.2 q=55.0 size=       1kB time=00:00:00.50 bitrate=  11.8kbits/s speed=0.0369x    frame=  100 fps=7.1 q=54.0 size=       1kB time=00:00:00.54 bitrate=  10.9kbits/s speed=0.0382x    frame=  103 fps=6.9 q=54.0 size=       1kB time=00:00:00.60 bitrate=   9.8kbits/s speed=0.0404x    frame=  107 fps=6.8 q=54.0 size=       1kB time=00:00:00.68 bitrate=   8.6kbits/s speed=0.0431x    frame=  110 fps=6.5 q=54.0 size=       1kB time=00:00:00.74 bitrate=   7.9kbits/s speed=0.0441x    frame=  114 fps=6.4 q=54.0 size=       1kB time=00:00:00.82 bitrate=   7.2kbits/s speed=0.0462x    frame=  118 fps=6.3 q=54.0 size=       1kB time=00:00:00.90 bitrate=   6.5kbits/s speed=0.0482x    frame=  121 fps=6.1 q=54.0 size=       1kB time=00:00:00.96 bitrate=   6.1kbits/s speed=0.0484x    frame=  127 fps=6.0 q=54.0 size=       1kB time=00:00:01.08 bitrate=   5.4kbits/s speed=0.0506x    frame=  131 fps=5.9 q=53.0 size=       1kB time=00:00:01.16 bitrate=   5.1kbits/s speed=0.0525x    frame=  133 fps=5.8 q=53.0 size=       1kB time=00:00:01.20 bitrate=   4.9kbits/s speed=0.0526x    frame=  136 fps=5.8 q=53.0 size=       1kB time=00:00:01.26 bitrate=   4.7kbits/s speed=0.0539x    frame=  139 fps=5.6 q=53.0 size=       1kB time=00:00:01.32 bitrate=   4.5kbits/s speed=0.0537x    frame=  143 fps=5.7 q=53.0 size=       1kB time=00:00:01.40 bitrate=   4.2kbits/s speed=0.0554x    frame=  145 fps=5.6 q=53.0 size=       1kB time=00:00:01.44 bitrate=   4.1kbits/s speed=0.0552x    frame=  147 fps=5.5 q=53.0 size=       1kB time=00:00:01.48 bitrate=   4.0kbits/s speed=0.0557x    frame=  151 fps=5.5 q=53.0 size=       1kB time=00:00:01.56 bitrate=   3.8kbits/s speed=0.0566x    frame=  154 fps=5.4 q=53.0 size=       1kB time=00:00:01.62 bitrate=   3.6kbits/s speed=0.0573x    frame=  156 fps=5.4 q=53.0 size=       1kB time=00:00:01.66 bitrate=   3.5kbits/s speed=0.0576x    frame=  159 fps=5.4 q=53.0 size=       1kB time=00:00:01.72 bitrate=   3.4kbits/s speed=0.058x    frame=  162 fps=5.4 q=53.0 size=       1kB time=00:00:01.78 bitrate=   3.3kbits/s speed=0.059x    frame=  163 fps=5.3 q=53.0 size=       1kB time=00:00:01.80 bitrate=   3.3kbits/s speed=0.0583x    frame=  166 fps=5.3 q=53.0 size=       1kB time=00:00:01.86 bitrate=   3.2kbits/s speed=0.059x    frame=  168 fps=5.2 q=52.0 size=       1kB time=00:00:01.90 bitrate=   3.1kbits/s speed=0.059x    frame=  171 fps=5.2 q=52.0 size=       1kB time=00:00:01.96 bitrate=   3.0kbits/s speed=0.0595x    frame=  175 fps=5.1 q=52.0 size=       1kB time=00:00:02.04 bitrate=   2.9kbits/s speed=0.06x    frame=  178 fps=5.1 q=52.0 size=       1kB time=00:00:02.10 bitrate=   2.8kbits/s speed=0.0602x    frame=  183 fps=5.1 q=52.0 size=       1kB time=00:00:02.20 bitrate=   2.7kbits/s speed=0.0611x    frame=  185 fps=5.1 q=52.0 size=       1kB time=00:00:02.24 bitrate=   2.6kbits/s speed=0.0612x    frame=  188 fps=5.0 q=52.0 size=       1kB time=00:00:02.30 bitrate=   2.6kbits/s speed=0.0615x    frame=  191 fps=5.0 q=52.0 size=       1kB time=00:00:02.36 bitrate=   2.5kbits/s speed=0.0614x    frame=  195 fps=5.0 q=52.0 size=       1kB time=00:00:02.44 bitrate=   2.4kbits/s speed=0.0624x    frame=  197 fps=4.9 q=52.0 size=       1kB time=00:00:02.48 bitrate=   2.4kbits/s speed=0.062x    frame=  200 fps=4.9 q=52.0 size=       1kB time=00:00:02.54 bitrate=   2.3kbits/s speed=0.0627x    frame=  202 fps=4.9 q=52.0 size=       1kB time=00:00:02.58 bitrate=   2.3kbits/s speed=0.0628x    frame=  204 fps=4.9 q=52.0 size=       1kB time=00:00:02.62 bitrate=   2.2kbits/s speed=0.063x    frame=  207 fps=4.8 q=52.0 size=       1kB time=00:00:02.68 bitrate=   2.2kbits/s speed=0.0627x    frame=  211 fps=4.9 q=52.0 size=       1kB time=00:00:02.76 bitrate=   2.1kbits/s speed=0.0635x    frame=  213 fps=4.8 q=52.0 size=       1kB time=00:00:02.80 bitrate=   2.1kbits/s speed=0.0636x    frame=  215 fps=4.8 q=52.0 size=       1kB time=00:00:02.84 bitrate=   2.1kbits/s speed=0.0634x    frame=  218 fps=4.8 q=52.0 size=       1kB time=00:00:02.90 bitrate=   2.0kbits/s speed=0.0639x    frame=  221 fps=4.8 q=52.0 size=       1kB time=00:00:02.96 bitrate=   2.0kbits/s speed=0.064x    frame=  222 fps=4.7 q=52.0 size=       1kB time=00:00:02.98 bitrate=   2.0kbits/s speed=0.0637x    frame=  227 fps=4.8 q=52.0 size=       1kB time=00:00:03.08 bitrate=   1.9kbits/s speed=0.0649x    frame=  228 fps=4.7 q=52.0 size=       1kB time=00:00:03.10 bitrate=   1.9kbits/s speed=0.0645x    frame=  229 fps=4.7 q=52.0 size=       1kB time=00:00:03.12 bitrate=   1.9kbits/s speed=0.0641x    frame=  233 fps=4.7 q=52.0 size=       1kB time=00:00:03.20 bitrate=   1.8kbits/s speed=0.0647x    frame=  236 fps=4.7 q=52.0 size=       1kB time=00:00:03.26 bitrate=   1.8kbits/s speed=0.0651x    frame=  237 fps=4.7 q=52.0 size=       1kB time=00:00:03.28 bitrate=   1.8kbits/s speed=0.0647x    frame=  241 fps=4.7 q=52.0 size=       1kB time=00:00:03.36 bitrate=   1.8kbits/s speed=0.065x    frame=  244 fps=4.7 q=52.0 size=       1kB time=00:00:03.42 bitrate=   1.7kbits/s speed=0.0654x    frame=  245 fps=4.6 q=52.0 size=       1kB time=00:00:03.44 bitrate=   1.7kbits/s speed=0.065x    frame=  250 fps=4.7 q=52.0 size=       1kB time=00:00:03.54 bitrate=   1.7kbits/s speed=0.0659x    frame=  251 fps=4.6 q=52.0 size=       1kB time=00:00:03.56 bitrate=   1.7kbits/s speed=0.0655x    frame=  253 fps=4.6 q=52.0 size=       1kB time=00:00:03.60 bitrate=   1.6kbits/s speed=0.0654x    frame=  256 fps=4.6 q=52.0 size=       1kB time=00:00:03.66 bitrate=   1.6kbits/s speed=0.0657x    frame=  259 fps=4.6 q=52.0 size=       1kB time=00:00:03.72 bitrate=   1.6kbits/s speed=0.066x    frame=  261 fps=4.6 q=52.0 size=       1kB time=00:00:03.76 bitrate=   1.6kbits/s speed=0.066x    frame=  263 fps=4.6 q=52.0 size=       1kB time=00:00:03.80 bitrate=   1.5kbits/s speed=0.0659x    frame=  266 fps=4.6 q=52.0 size=       1kB time=00:00:03.86 bitrate=   1.5kbits/s speed=0.0663x    frame=  267 fps=4.5 q=52.0 size=       1kB time=00:00:03.88 bitrate=   1.5kbits/s speed=0.066x    frame=  270 fps=4.5 q=52.0 size=       1kB time=00:00:03.94 bitrate=   1.5kbits/s speed=0.0663x    frame=  272 fps=4.5 q=52.0 size=       1kB time=00:00:03.98 bitrate=   1.5kbits/s speed=0.0663x    frame=  275 fps=4.5 q=52.0 size=       1kB time=00:00:04.04 bitrate=   1.5kbits/s speed=0.0665x    frame=  277 fps=4.5 q=52.0 size=       1kB time=00:00:04.08 bitrate=   1.4kbits/s speed=0.0664x    frame=  280 fps=4.5 q=52.0 size=       1kB time=00:00:04.14 bitrate=   1.4kbits/s speed=0.0668x    frame=  281 fps=4.5 q=52.0 size=       1kB time=00:00:04.16 bitrate=   1.4kbits/s speed=0.0666x    frame=  283 fps=4.5 q=52.0 size=       1kB time=00:00:04.20 bitrate=   1.4kbits/s speed=0.0666x    frame=  286 fps=4.5 q=52.0 size=       1kB time=00:00:04.26 bitrate=   1.4kbits/s speed=0.0665x    frame=  289 fps=4.5 q=52.0 size=       1kB time=00:00:04.32 bitrate=   1.4kbits/s speed=0.0669x    frame=  291 fps=4.5 q=52.0 size=       1kB time=00:00:04.36 bitrate=   1.4kbits/s speed=0.0668x    frame=  293 fps=4.4 q=52.0 size=       1kB time=00:00:04.40 bitrate=   1.3kbits/s speed=0.0667x    frame=  295 fps=4.4 q=52.0 size=       1kB time=00:00:04.44 bitrate=   1.3kbits/s speed=0.0668x    frame=  299 fps=4.4 q=52.0 size=       1kB time=00:00:04.52 bitrate=   1.3kbits/s speed=0.0672x    frame=  300 fps=4.4 q=52.0 size=       1kB time=00:00:04.54 bitrate=   1.3kbits/s speed=0.0668x    frame=  302 fps=4.4 q=52.0 size=       1kB time=00:00:04.58 bitrate=   1.3kbits/s speed=0.0668x    frame=  306 fps=4.4 q=52.0 size=       1kB time=00:00:04.66 bitrate=   1.3kbits/s speed=0.0674x    frame=  307 fps=4.4 q=52.0 size=       1kB time=00:00:04.68 bitrate=   1.3kbits/s speed=0.0671x    frame=  309 fps=4.4 q=52.0 size=       1kB time=00:00:04.72 bitrate=   1.2kbits/s speed=0.067x    frame=  313 fps=4.4 q=52.0 size=       1kB time=00:00:04.80 bitrate=   1.2kbits/s speed=0.067x    frame=  317 fps=4.4 q=52.0 size=       1kB time=00:00:04.88 bitrate=   1.2kbits/s speed=0.0672x    frame=  320 fps=4.4 q=52.0 size=       1kB time=00:00:04.94 bitrate=   1.2kbits/s speed=0.0674x    frame=  327 fps=4.4 q=52.0 size=    3137kB time=00:00:05.08 bitrate=5057.4kbits/s speed=0.0686x    frame=  329 fps=4.4 q=52.0 size=    3137kB time=00:00:05.12 bitrate=5017.9kbits/s speed=0.0685x    frame=  333 fps=4.4 q=52.0 size=    3137kB time=00:00:05.20 bitrate=4940.7kbits/s speed=0.0686x    frame=  336 fps=4.4 q=52.0 size=    3137kB time=00:00:05.26 bitrate=4884.4kbits/s speed=0.0689x    frame=  338 fps=4.4 q=52.0 size=    3137kB time=00:00:05.30 bitrate=4847.5kbits/s speed=0.0689x    frame=  340 fps=4.4 q=52.0 size=    3137kB time=00:00:05.34 bitrate=4811.2kbits/s speed=0.0688x    frame=  342 fps=4.4 q=52.0 size=    3137kB time=00:00:05.38 bitrate=4775.4kbits/s speed=0.0686x    frame=  347 fps=4.4 q=52.0 size=    3137kB time=00:00:05.48 bitrate=4688.3kbits/s speed=0.0689x    frame=  349 fps=4.3 q=52.0 size=    3137kB time=00:00:05.52 bitrate=4654.3kbits/s speed=0.0686x    frame=  353 fps=4.3 q=52.0 size=    3137kB time=00:00:05.60 bitrate=4587.9kbits/s speed=0.0688x    frame=  356 fps=4.3 q=52.0 size=    3137kB time=00:00:05.66 bitrate=4539.2kbits/s speed=0.0691x    frame=  357 fps=4.3 q=52.0 size=    3137kB time=00:00:05.68 bitrate=4523.3kbits/s speed=0.0688x    frame=  361 fps=4.3 q=52.0 size=    3137kB time=00:00:05.76 bitrate=4460.4kbits/s speed=0.0687x    frame=  365 fps=4.3 q=52.0 size=    3137kB time=00:00:05.84 bitrate=4399.4kbits/s speed=0.0688x    frame=  369 fps=4.3 q=52.0 size=    3137kB time=00:00:05.92 bitrate=4339.9kbits/s speed=0.0689x    frame=  372 fps=4.3 q=52.0 size=    3137kB time=00:00:05.98 bitrate=4296.4kbits/s speed=0.0691x    frame=  374 fps=4.3 q=52.0 size=    3137kB time=00:00:06.02 bitrate=4267.8kbits/s speed=0.0688x    frame=  378 fps=4.3 q=52.0 size=    3137kB time=00:00:06.10 bitrate=4211.9kbits/s speed=0.0692x    frame=  380 fps=4.3 q=52.0 size=    3137kB time=00:00:06.14 bitrate=4184.4kbits/s speed=0.0688x    frame=  385 fps=4.3 q=52.0 size=    3137kB time=00:00:06.24 bitrate=4117.4kbits/s speed=0.0695x    frame=  386 fps=4.2 q=52.0 size=    3137kB time=00:00:06.26 bitrate=4104.2kbits/s speed=0.0689x    frame=  390 fps=4.3 q=52.0 size=    3137kB time=00:00:06.34 bitrate=4052.5kbits/s speed=0.0692x    frame=  392 fps=4.3 q=52.0 size=    3137kB time=00:00:06.38 bitrate=4027.1kbits/s speed=0.0692x    frame=  394 fps=4.2 q=52.0 size=    3137kB time=00:00:06.42 bitrate=4002.0kbits/s speed=0.069x    frame=  397 fps=4.2 q=52.0 size=    3137kB time=00:00:06.48 bitrate=3964.9kbits/s speed=0.0692x    frame=  399 fps=4.2 q=52.0 size=    3137kB time=00:00:06.52 bitrate=3940.6kbits/s speed=0.0692x    frame=  401 fps=4.2 q=52.0 size=    3137kB time=00:00:06.56 bitrate=3916.6kbits/s speed=0.0693x    frame=  403 fps=4.2 q=52.0 size=    3137kB time=00:00:06.60 bitrate=3892.8kbits/s speed=0.069x    frame=  407 fps=4.2 q=52.0 size=    3137kB time=00:00:06.68 bitrate=3846.2kbits/s speed=0.0692x    frame=  409 fps=4.2 q=52.0 size=    3137kB time=00:00:06.72 bitrate=3823.3kbits/s speed=0.0692x    frame=  411 fps=4.2 q=52.0 size=    3137kB time=00:00:06.76 bitrate=3800.7kbits/s speed=0.0691x    frame=  415 fps=4.2 q=52.0 size=    3137kB time=00:00:06.84 bitrate=3756.3kbits/s speed=0.0692x    frame=  418 fps=4.2 q=52.0 size=    3137kB time=00:00:06.90 bitrate=3723.6kbits/s speed=0.0694x    frame=  419 fps=4.2 q=52.0 size=    3137kB time=00:00:06.92 bitrate=3712.9kbits/s speed=0.0691x    frame=  424 fps=4.2 q=52.0 size=    3137kB time=00:00:07.02 bitrate=3660.0kbits/s speed=0.0692x    frame=  428 fps=4.2 q=52.0 size=    3137kB time=00:00:07.10 bitrate=3618.7kbits/s speed=0.0695x    frame=  430 fps=4.2 q=52.0 size=    3137kB time=00:00:07.14 bitrate=3598.5kbits/s speed=0.0695x    frame=  432 fps=4.2 q=52.0 size=    3137kB time=00:00:07.18 bitrate=3578.4kbits/s speed=0.0692x    frame=  436 fps=4.2 q=52.0 size=    3137kB time=00:00:07.26 bitrate=3539.0kbits/s speed=0.0695x    frame=  438 fps=4.2 q=52.0 size=    3137kB time=00:00:07.30 bitrate=3519.6kbits/s speed=0.0694x    frame=  441 fps=4.2 q=52.0 size=    3137kB time=00:00:07.36 bitrate=3490.9kbits/s speed=0.0694x    frame=  443 fps=4.1 q=52.0 size=    3137kB time=00:00:07.40 bitrate=3472.0kbits/s speed=0.0693x    frame=  447 fps=4.2 q=52.0 size=    3137kB time=00:00:07.48 bitrate=3434.9kbits/s speed=0.0695x    frame=  449 fps=4.1 q=52.0 size=    3137kB time=00:00:07.52 bitrate=3416.7kbits/s speed=0.0694x    frame=  451 fps=4.1 q=52.0 size=    3137kB time=00:00:07.56 bitrate=3398.6kbits/s speed=0.0693x    frame=  455 fps=4.1 q=52.0 size=    3137kB time=00:00:07.64 bitrate=3363.0kbits/s speed=0.0696x    frame=  457 fps=4.1 q=52.0 size=    3137kB time=00:00:07.68 bitrate=3345.5kbits/s speed=0.0696x    frame=  458 fps=4.1 q=52.0 size=    3137kB time=00:00:07.70 bitrate=3336.8kbits/s speed=0.0694x    frame=  459 fps=4.1 q=52.0 size=    3137kB time=00:00:07.72 bitrate=3328.1kbits/s speed=0.0692x    frame=  463 fps=4.1 q=52.0 size=    3137kB time=00:00:07.80 bitrate=3294.0kbits/s speed=0.0695x    frame=  465 fps=4.1 q=52.0 size=    3137kB time=00:00:07.84 bitrate=3277.2kbits/s speed=0.0695x    frame=  467 fps=4.1 q=52.0 size=    3137kB time=00:00:07.88 bitrate=3260.6kbits/s speed=0.0692x    frame=  471 fps=4.1 q=52.0 size=    3137kB time=00:00:07.96 bitrate=3227.8kbits/s speed=0.0696x    frame=  473 fps=4.1 q=52.0 size=    3137kB time=00:00:08.00 bitrate=3211.7kbits/s speed=0.0694x    frame=  475 fps=4.1 q=52.0 size=    3137kB time=00:00:08.04 bitrate=3195.7kbits/s speed=0.0694x    frame=  478 fps=4.1 q=52.0 size=    3137kB time=00:00:08.10 bitrate=3172.0kbits/s speed=0.0695x    frame=  479 fps=4.1 q=52.0 size=    3137kB time=00:00:08.12 bitrate=3164.2kbits/s speed=0.0693x    frame=  483 fps=4.1 q=52.0 size=    3137kB time=00:00:08.20 bitrate=3133.4kbits/s speed=0.0696x    frame=  485 fps=4.1 q=52.0 size=    3137kB time=00:00:08.24 bitrate=3118.1kbits/s speed=0.0694x    frame=  487 fps=4.1 q=52.0 size=    3137kB time=00:00:08.28 bitrate=3103.1kbits/s speed=0.0693x    frame=  491 fps=4.1 q=52.0 size=    3137kB time=00:00:08.36 bitrate=3073.4kbits/s speed=0.0697x    frame=  492 fps=4.1 q=52.0 size=    3137kB time=00:00:08.38 bitrate=3066.1kbits/s speed=0.0695x    frame=  493 fps=4.1 q=52.0 size=    3137kB time=00:00:08.40 bitrate=3058.8kbits/s speed=0.0693x    frame=  497 fps=4.1 q=52.0 size=    3137kB time=00:00:08.48 bitrate=3029.9kbits/s speed=0.0694x    frame=  499 fps=4.1 q=52.0 size=    3137kB time=00:00:08.52 bitrate=3015.7kbits/s speed=0.0695x    frame=  500 fps=4.1 q=52.0 size=    3137kB time=00:00:08.54 bitrate=3008.6kbits/s speed=0.0692x    frame=  500 fps=3.5 q=-1.0 Lsize=    6240kB time=00:00:09.94 bitrate=5142.4kbits/s speed=0.0701x    
video:6236kB audio:0kB subtitle:0kB other streams:0kB global headers:0kB muxing overhead: 0.069860%
bench: utime=535.448s
bench: maxrss=2539612kB
[libx264 @ 0x44ac1c0] frame I:2     Avg QP:41.51  size:177342
[libx264 @ 0x44ac1c0] frame P:134   Avg QP:50.28  size: 23956
[libx264 @ 0x44ac1c0] frame B:364   Avg QP:50.74  size:  7748
[libx264 @ 0x44ac1c0] consecutive B-frames:  0.4%  2.8% 14.4% 82.4%
[libx264 @ 0x44ac1c0] mb I  I16..4: 29.7% 66.6%  3.7%
[libx264 @ 0x44ac1c0] mb P  I16..4:  4.0%  4.5%  0.0%  P16..4: 25.0%  0.7%  1.9%  0.0%  0.0%    skip:63.8%
[libx264 @ 0x44ac1c0] mb B  I16..4:  0.0%  0.0%  0.0%  B16..8: 24.0%  0.2%  0.0%  direct: 0.1%  skip:75.6%  L0:36.9% L1:63.1% BI: 0.1%
[libx264 @ 0x44ac1c0] final ratefactor: 44.17
[libx264 @ 0x44ac1c0] 8x8 transform intra:54.7% inter:95.3%
[libx264 @ 0x44ac1c0] direct mvs  spatial:98.9% temporal:1.1%
[libx264 @ 0x44ac1c0] coded y,uvDC,uvAC intra: 10.2% 34.7% 4.3% inter: 0.5% 3.1% 0.0%
[libx264 @ 0x44ac1c0] i16 v,h,dc,p: 49% 23%  4% 25%
[libx264 @ 0x44ac1c0] i8 v,h,dc,ddl,ddr,vr,hd,vl,hu:  8%  4% 52%  7%  7%  7%  6%  5%  4%
[libx264 @ 0x44ac1c0] i4 v,h,dc,ddl,ddr,vr,hd,vl,hu:  6%  4%  2% 14% 17% 15% 15% 11% 15%
[libx264 @ 0x44ac1c0] i8c dc,h,v,p: 76% 11% 10%  3%
[libx264 @ 0x44ac1c0] Weighted P-Frames: Y:0.7% UV:0.0%
[libx264 @ 0x44ac1c0] ref P L0: 60.2%  0.9% 17.8%  5.4%  4.8%  4.1%  4.4%  2.4%  0.0%
[libx264 @ 0x44ac1c0] ref B L0: 93.1%  3.5%  1.6%  0.6%  0.5%  0.4%  0.3%
[libx264 @ 0x44ac1c0] ref B L1: 98.9%  1.1%
[libx264 @ 0x44ac1c0] kb/s:5107.95
